<?xml version="1.0" standalone="no"?><svg xmlns="http://www.w3.org/2000/svg" viewBox="0 0 1440 320"><path fill="#132136" fill-opacity="1" d="M0,192L26.7,213.3C53.3,235,107,277,160,293.3C213.3,309,267,299,320,266.7C373.3,235,427,181,480,149.3C533.3,117,587,107,640,106.7C693.3,107,747,117,800,133.3C853.3,149,907,171,960,154.7C1013.3,139,1067,85,1120,64C1173.3,43,1227,53,1280,58.7C1333.3,64,1387,64,1413,64L1440,64L1440,320L1413.3,320C1386.7,320,1333,320,1280,320C1226.7,320,1173,320,1120,320C1066.7,320,1013,320,960,320C906.7,320,853,320,800,320C746.7,320,693,320,640,320C586.7,320,533,320,480,320C426.7,320,373,320,320,320C266.7,320,213,320,160,320C106.7,320,53,320,27,320L0,320Z"></path></svg>