<?xml version="1.0" standalone="no"?><svg xmlns="http://www.w3.org/2000/svg" viewBox="0 0 1440 320"><path fill="#132136" fill-opacity="1" d="M0,160L34.3,154.7C68.6,149,137,139,206,128C274.3,117,343,107,411,101.3C480,96,549,96,617,96C685.7,96,754,96,823,128C891.4,160,960,224,1029,224C1097.1,224,1166,160,1234,122.7C1302.9,85,1371,75,1406,69.3L1440,64L1440,320L1405.7,320C1371.4,320,1303,320,1234,320C1165.7,320,1097,320,1029,320C960,320,891,320,823,320C754.3,320,686,320,617,320C548.6,320,480,320,411,320C342.9,320,274,320,206,320C137.1,320,69,320,34,320L0,320Z"></path></svg>